# xmcd
#
# Track frame offsets:
#	150
#	12750
#	29475
#	40275
#	52425
#	74400
#	86775
#	108225
#	124425
#	140700
#	156450
#	169950
#	181050
#	203925
#	221850
#	237600
#	252600
#	266175
#
# Disc length: 3723 seconds
#
# Revision: 1
# Processed by: cddbd v1.4PL0 Copyright (c) Steve Scherf et al.
# Submitted via: audiograbber 1.80
#
DISCID=2b0e8912
DTITLE=Lonnie Donegan - Have A Drink On ME
DYEAR=1900
DGENRE=
TTITLE0=Casey압 Last Ride
TTITLE1=Roll in my Sweet Baby압 Arms
TTITLE2=Bottle Of Wine
TTITLE3=Dixie Darling
TTITLE4=Me&Bobby McGhee
TTITLE5=Keep On The Sunny Side
TTITLE6=Frankie&Johnny
TTITLE7=My Old Man압 A Dustman
TTITLE8=Midnight Special
TTITLE9=Country Roads
TTITLE10=Have A Drink on me
TTITLE11=Jack ODiamonds
TTITLE12=Rock Island Line
TTITLE13=Gloryland
TTITLE14=Leinemann압 Potatoes
TTITLE15=Lousiana Man
TTITLE16=Dublin O`Shea
TTITLE17=Does Your Chewing Gum Lose it압 Flavor
EXTD=
EXTT0=C
EXTT1=
EXTT2=
EXTT3=
EXTT4=
EXTT5=
EXTT6=
EXTT7=
EXTT8=
EXTT9=
EXTT10=
EXTT11=
EXTT12=
EXTT13=
EXTT14=
EXTT15=
EXTT16=
EXTT17=
PLAYORDER=
